<mxfile host="65bd71144e">
    <diagram id="RufQXTQDjcrLYL4atAAw" name="Page-1">
        <mxGraphModel dx="566" dy="1560" grid="1" gridSize="3" guides="1" tooltips="1" connect="1" arrows="1" fold="1" page="1" pageScale="1" pageWidth="827" pageHeight="1169" math="0" shadow="0">
            <root>
                <mxCell id="0"/>
                <mxCell id="1" parent="0"/>
                <mxCell id="mKXnOf7b41Ta-yeb7uyL-11" value="" style="group" parent="1" vertex="1" connectable="0">
                    <mxGeometry x="84" y="120" width="84" height="36" as="geometry"/>
                </mxCell>
                <mxCell id="mKXnOf7b41Ta-yeb7uyL-12" value="" style="rounded=0;whiteSpace=wrap;html=1;" parent="mKXnOf7b41Ta-yeb7uyL-11" vertex="1">
                    <mxGeometry width="84" height="36" as="geometry"/>
                </mxCell>
                <mxCell id="mKXnOf7b41Ta-yeb7uyL-13" value="&lt;font style=&quot;font-size: 10px;&quot;&gt;Allievo&lt;br&gt;&lt;/font&gt;" style="text;html=1;strokeColor=none;fillColor=none;align=center;verticalAlign=middle;whiteSpace=wrap;rounded=0;" parent="mKXnOf7b41Ta-yeb7uyL-11" vertex="1">
                    <mxGeometry width="84" height="36" as="geometry"/>
                </mxCell>
                <mxCell id="mKXnOf7b41Ta-yeb7uyL-23" value="" style="group" parent="1" vertex="1" connectable="0">
                    <mxGeometry x="87" y="87" width="30" height="35" as="geometry"/>
                </mxCell>
                <mxCell id="mKXnOf7b41Ta-yeb7uyL-24" value="&lt;font style=&quot;line-height: 1; font-size: 6px;&quot;&gt;idAll&lt;/font&gt;" style="text;html=1;strokeColor=none;fillColor=none;align=center;verticalAlign=middle;whiteSpace=wrap;rounded=0;fontSize=10;" parent="mKXnOf7b41Ta-yeb7uyL-23" vertex="1">
                    <mxGeometry width="30" height="10" as="geometry"/>
                </mxCell>
                <mxCell id="mKXnOf7b41Ta-yeb7uyL-25" value="" style="group" parent="mKXnOf7b41Ta-yeb7uyL-23" vertex="1" connectable="0">
                    <mxGeometry x="10" y="10" width="10" height="25" as="geometry"/>
                </mxCell>
                <mxCell id="mKXnOf7b41Ta-yeb7uyL-26" value="" style="endArrow=none;html=1;rounded=0;fontSize=10;" parent="mKXnOf7b41Ta-yeb7uyL-25" target="mKXnOf7b41Ta-yeb7uyL-27" edge="1">
                    <mxGeometry width="50" height="50" relative="1" as="geometry">
                        <mxPoint x="5" y="23" as="sourcePoint"/>
                        <mxPoint x="5" y="5" as="targetPoint"/>
                    </mxGeometry>
                </mxCell>
                <mxCell id="mKXnOf7b41Ta-yeb7uyL-27" value="" style="ellipse;whiteSpace=wrap;html=1;aspect=fixed;fontSize=10;fillColor=#000000;" parent="mKXnOf7b41Ta-yeb7uyL-25" vertex="1">
                    <mxGeometry width="10" height="10" as="geometry"/>
                </mxCell>
                <mxCell id="mKXnOf7b41Ta-yeb7uyL-28" value="" style="group" parent="1" vertex="1" connectable="0">
                    <mxGeometry x="111" y="87" width="30" height="35" as="geometry"/>
                </mxCell>
                <mxCell id="mKXnOf7b41Ta-yeb7uyL-29" value="" style="endArrow=none;html=1;rounded=0;fontSize=10;" parent="mKXnOf7b41Ta-yeb7uyL-28" target="mKXnOf7b41Ta-yeb7uyL-30" edge="1">
                    <mxGeometry width="50" height="50" relative="1" as="geometry">
                        <mxPoint x="15" y="33" as="sourcePoint"/>
                        <mxPoint x="15" y="15" as="targetPoint"/>
                    </mxGeometry>
                </mxCell>
                <mxCell id="mKXnOf7b41Ta-yeb7uyL-30" value="" style="ellipse;whiteSpace=wrap;html=1;aspect=fixed;fontSize=10;" parent="mKXnOf7b41Ta-yeb7uyL-28" vertex="1">
                    <mxGeometry x="10" y="10" width="10" height="10" as="geometry"/>
                </mxCell>
                <mxCell id="mKXnOf7b41Ta-yeb7uyL-31" value="&lt;font style=&quot;font-size: 6px;&quot;&gt;nome&lt;/font&gt;" style="text;html=1;strokeColor=none;fillColor=none;align=center;verticalAlign=middle;whiteSpace=wrap;rounded=0;fontSize=10;" parent="mKXnOf7b41Ta-yeb7uyL-28" vertex="1">
                    <mxGeometry width="30" height="10" as="geometry"/>
                </mxCell>
                <mxCell id="mKXnOf7b41Ta-yeb7uyL-32" value="" style="group" parent="1" vertex="1" connectable="0">
                    <mxGeometry x="135" y="87" width="30" height="35" as="geometry"/>
                </mxCell>
                <mxCell id="mKXnOf7b41Ta-yeb7uyL-33" value="" style="endArrow=none;html=1;rounded=0;fontSize=10;" parent="mKXnOf7b41Ta-yeb7uyL-32" target="mKXnOf7b41Ta-yeb7uyL-34" edge="1">
                    <mxGeometry width="50" height="50" relative="1" as="geometry">
                        <mxPoint x="15" y="33" as="sourcePoint"/>
                        <mxPoint x="15" y="15" as="targetPoint"/>
                    </mxGeometry>
                </mxCell>
                <mxCell id="mKXnOf7b41Ta-yeb7uyL-34" value="" style="ellipse;whiteSpace=wrap;html=1;aspect=fixed;fontSize=10;" parent="mKXnOf7b41Ta-yeb7uyL-32" vertex="1">
                    <mxGeometry x="10" y="10" width="10" height="10" as="geometry"/>
                </mxCell>
                <mxCell id="mKXnOf7b41Ta-yeb7uyL-35" value="&lt;font style=&quot;font-size: 6px;&quot;&gt;cognome&lt;/font&gt;" style="text;html=1;strokeColor=none;fillColor=none;align=center;verticalAlign=middle;whiteSpace=wrap;rounded=0;fontSize=10;" parent="mKXnOf7b41Ta-yeb7uyL-32" vertex="1">
                    <mxGeometry width="30" height="10" as="geometry"/>
                </mxCell>
                <mxCell id="mKXnOf7b41Ta-yeb7uyL-81" style="edgeStyle=orthogonalEdgeStyle;rounded=0;orthogonalLoop=1;jettySize=auto;html=1;exitX=0.5;exitY=0;exitDx=0;exitDy=0;entryX=0.5;entryY=1;entryDx=0;entryDy=0;fontSize=6;endArrow=none;endFill=0;" parent="1" source="mKXnOf7b41Ta-yeb7uyL-50" target="mKXnOf7b41Ta-yeb7uyL-13" edge="1">
                    <mxGeometry relative="1" as="geometry"/>
                </mxCell>
                <mxCell id="mKXnOf7b41Ta-yeb7uyL-86" value="" style="edgeStyle=orthogonalEdgeStyle;rounded=0;orthogonalLoop=1;jettySize=auto;html=1;fontSize=6;endArrow=none;endFill=0;" parent="1" source="mKXnOf7b41Ta-yeb7uyL-50" target="mKXnOf7b41Ta-yeb7uyL-85" edge="1">
                    <mxGeometry relative="1" as="geometry"/>
                </mxCell>
                <mxCell id="mKXnOf7b41Ta-yeb7uyL-53" value="" style="group" parent="1" vertex="1" connectable="0">
                    <mxGeometry x="3" y="3" width="30" height="35" as="geometry"/>
                </mxCell>
                <mxCell id="mKXnOf7b41Ta-yeb7uyL-54" value="&lt;font style=&quot;line-height: 1; font-size: 6px;&quot;&gt;idAll&lt;/font&gt;" style="text;html=1;strokeColor=none;fillColor=none;align=center;verticalAlign=middle;whiteSpace=wrap;rounded=0;fontSize=10;" parent="mKXnOf7b41Ta-yeb7uyL-53" vertex="1">
                    <mxGeometry width="30" height="10" as="geometry"/>
                </mxCell>
                <mxCell id="mKXnOf7b41Ta-yeb7uyL-55" value="" style="group" parent="mKXnOf7b41Ta-yeb7uyL-53" vertex="1" connectable="0">
                    <mxGeometry x="10" y="10" width="10" height="25" as="geometry"/>
                </mxCell>
                <mxCell id="mKXnOf7b41Ta-yeb7uyL-56" value="" style="endArrow=none;html=1;rounded=0;fontSize=10;" parent="mKXnOf7b41Ta-yeb7uyL-55" target="mKXnOf7b41Ta-yeb7uyL-57" edge="1">
                    <mxGeometry width="50" height="50" relative="1" as="geometry">
                        <mxPoint x="5" y="23" as="sourcePoint"/>
                        <mxPoint x="5" y="5" as="targetPoint"/>
                    </mxGeometry>
                </mxCell>
                <mxCell id="mKXnOf7b41Ta-yeb7uyL-57" value="" style="ellipse;whiteSpace=wrap;html=1;aspect=fixed;fontSize=10;fillColor=#000000;" parent="mKXnOf7b41Ta-yeb7uyL-55" vertex="1">
                    <mxGeometry width="10" height="10" as="geometry"/>
                </mxCell>
                <mxCell id="mKXnOf7b41Ta-yeb7uyL-63" value="" style="group" parent="1" vertex="1" connectable="0">
                    <mxGeometry x="27" y="3" width="30" height="35" as="geometry"/>
                </mxCell>
                <mxCell id="mKXnOf7b41Ta-yeb7uyL-64" value="" style="endArrow=none;html=1;rounded=0;fontSize=10;" parent="mKXnOf7b41Ta-yeb7uyL-63" target="mKXnOf7b41Ta-yeb7uyL-65" edge="1">
                    <mxGeometry width="50" height="50" relative="1" as="geometry">
                        <mxPoint x="15" y="33" as="sourcePoint"/>
                        <mxPoint x="15" y="15" as="targetPoint"/>
                    </mxGeometry>
                </mxCell>
                <mxCell id="mKXnOf7b41Ta-yeb7uyL-65" value="" style="ellipse;whiteSpace=wrap;html=1;aspect=fixed;fontSize=10;" parent="mKXnOf7b41Ta-yeb7uyL-63" vertex="1">
                    <mxGeometry x="10" y="10" width="10" height="10" as="geometry"/>
                </mxCell>
                <mxCell id="mKXnOf7b41Ta-yeb7uyL-66" value="&lt;font style=&quot;font-size: 6px;&quot;&gt;nome&lt;/font&gt;" style="text;html=1;strokeColor=none;fillColor=none;align=center;verticalAlign=middle;whiteSpace=wrap;rounded=0;fontSize=10;" parent="mKXnOf7b41Ta-yeb7uyL-63" vertex="1">
                    <mxGeometry width="30" height="10" as="geometry"/>
                </mxCell>
                <mxCell id="mKXnOf7b41Ta-yeb7uyL-67" value="" style="group;rotation=-90;" parent="1" vertex="1" connectable="0">
                    <mxGeometry x="5" y="36" width="30" height="35" as="geometry"/>
                </mxCell>
                <mxCell id="mKXnOf7b41Ta-yeb7uyL-68" value="" style="endArrow=none;html=1;rounded=0;fontSize=10;" parent="mKXnOf7b41Ta-yeb7uyL-67" target="mKXnOf7b41Ta-yeb7uyL-69" edge="1">
                    <mxGeometry width="50" height="50" relative="1" as="geometry">
                        <mxPoint x="31" y="18" as="sourcePoint"/>
                        <mxPoint x="13" y="18" as="targetPoint"/>
                    </mxGeometry>
                </mxCell>
                <mxCell id="mKXnOf7b41Ta-yeb7uyL-69" value="" style="ellipse;whiteSpace=wrap;html=1;aspect=fixed;fontSize=10;rotation=-90;" parent="mKXnOf7b41Ta-yeb7uyL-67" vertex="1">
                    <mxGeometry x="8" y="13" width="10" height="10" as="geometry"/>
                </mxCell>
                <mxCell id="mKXnOf7b41Ta-yeb7uyL-70" value="&lt;span style=&quot;font-size: 6px;&quot;&gt;nascita&lt;/span&gt;" style="text;html=1;strokeColor=none;fillColor=none;align=center;verticalAlign=middle;whiteSpace=wrap;rounded=0;fontSize=10;rotation=0;" parent="mKXnOf7b41Ta-yeb7uyL-67" vertex="1">
                    <mxGeometry x="-2" y="3" width="30" height="10" as="geometry"/>
                </mxCell>
                <mxCell id="mKXnOf7b41Ta-yeb7uyL-82" value="&lt;font color=&quot;#000000&quot;&gt;Il sistema deve offrire la possibilità di registrare gli allievi che seguono diversi corsi.&lt;br&gt;&lt;br&gt;Ogni allievo è iscritto al suo corrispettivo corso, e ogni corso ha il proprio docente.&lt;br&gt;Ogni allievo viene salvato nel database con le sue informazioni, ovvero Nome, Cognome e data di nascita.&lt;br&gt;&lt;br&gt;Ogni corso ha la sua specializzazione, è seguito da un Allievo e insegnato da uno dei docenti.&lt;br&gt;&lt;br&gt;Ogni docente è collegato al corso in cui insegna e deve essere salvato con le sue informazioni, ovvero nome, cognome e data di nascita.&lt;br&gt;&lt;br&gt;Esempio:&lt;br&gt;Corso: Chitarra&lt;br&gt;Docente: Mario&lt;br&gt;&lt;br&gt;Corso: Chitarra&lt;br&gt;Docente: Rossi&lt;br&gt;&lt;br&gt;Corso: Basso&lt;br&gt;Docente: Luigi&lt;br&gt;&lt;br&gt;Corso: Pianoforte&lt;br&gt;Docente: Verdi&lt;/font&gt;" style="text;html=1;strokeColor=default;fillColor=#FFFFFF;align=left;verticalAlign=middle;whiteSpace=wrap;rounded=0;fontSize=6;" parent="1" vertex="1">
                    <mxGeometry x="60" y="-144" width="156" height="205" as="geometry"/>
                </mxCell>
                <mxCell id="mKXnOf7b41Ta-yeb7uyL-83" value="" style="group" parent="1" vertex="1" connectable="0">
                    <mxGeometry x="204" y="203.25" width="84" height="36.75" as="geometry"/>
                </mxCell>
                <mxCell id="mKXnOf7b41Ta-yeb7uyL-84" value="" style="rounded=0;whiteSpace=wrap;html=1;" parent="mKXnOf7b41Ta-yeb7uyL-83" vertex="1">
                    <mxGeometry width="84" height="36.75" as="geometry"/>
                </mxCell>
                <mxCell id="mKXnOf7b41Ta-yeb7uyL-85" value="&lt;font style=&quot;font-size: 10px;&quot;&gt;Corso&lt;br&gt;&lt;/font&gt;" style="text;html=1;strokeColor=none;fillColor=none;align=center;verticalAlign=middle;whiteSpace=wrap;rounded=0;" parent="mKXnOf7b41Ta-yeb7uyL-83" vertex="1">
                    <mxGeometry width="84" height="36.75" as="geometry"/>
                </mxCell>
                <mxCell id="mKXnOf7b41Ta-yeb7uyL-87" value="(1,1)" style="text;html=1;strokeColor=none;fillColor=none;align=center;verticalAlign=middle;whiteSpace=wrap;rounded=0;fontSize=6;" parent="1" vertex="1">
                    <mxGeometry x="109" y="204" width="15" height="12" as="geometry"/>
                </mxCell>
                <mxCell id="mKXnOf7b41Ta-yeb7uyL-88" value="(1,1)" style="text;html=1;strokeColor=none;fillColor=none;align=center;verticalAlign=middle;whiteSpace=wrap;rounded=0;fontSize=6;" parent="1" vertex="1">
                    <mxGeometry x="141" y="222.25" width="15" height="12" as="geometry"/>
                </mxCell>
                <mxCell id="mKXnOf7b41Ta-yeb7uyL-89" value="" style="group" parent="1" vertex="1" connectable="0">
                    <mxGeometry x="255" y="170" width="30" height="35" as="geometry"/>
                </mxCell>
                <mxCell id="mKXnOf7b41Ta-yeb7uyL-90" value="" style="endArrow=none;html=1;rounded=0;fontSize=10;" parent="mKXnOf7b41Ta-yeb7uyL-89" target="mKXnOf7b41Ta-yeb7uyL-91" edge="1">
                    <mxGeometry width="50" height="50" relative="1" as="geometry">
                        <mxPoint x="15" y="33" as="sourcePoint"/>
                        <mxPoint x="15" y="15" as="targetPoint"/>
                    </mxGeometry>
                </mxCell>
                <mxCell id="mKXnOf7b41Ta-yeb7uyL-91" value="" style="ellipse;whiteSpace=wrap;html=1;aspect=fixed;fontSize=10;" parent="mKXnOf7b41Ta-yeb7uyL-89" vertex="1">
                    <mxGeometry x="10" y="10" width="10" height="10" as="geometry"/>
                </mxCell>
                <mxCell id="mKXnOf7b41Ta-yeb7uyL-92" value="&lt;font style=&quot;font-size: 3px;&quot;&gt;specializzazione&lt;/font&gt;" style="text;html=1;strokeColor=none;fillColor=none;align=center;verticalAlign=middle;whiteSpace=wrap;rounded=0;fontSize=10;" parent="mKXnOf7b41Ta-yeb7uyL-89" vertex="1">
                    <mxGeometry x="6" width="30" height="10" as="geometry"/>
                </mxCell>
                <mxCell id="mKXnOf7b41Ta-yeb7uyL-95" value="" style="group" parent="1" vertex="1" connectable="0">
                    <mxGeometry x="207" y="170" width="30" height="35" as="geometry"/>
                </mxCell>
                <mxCell id="mKXnOf7b41Ta-yeb7uyL-96" value="&lt;font style=&quot;line-height: 1; font-size: 6px;&quot;&gt;idCor&lt;/font&gt;" style="text;html=1;strokeColor=none;fillColor=none;align=center;verticalAlign=middle;whiteSpace=wrap;rounded=0;fontSize=10;" parent="mKXnOf7b41Ta-yeb7uyL-95" vertex="1">
                    <mxGeometry width="30" height="10" as="geometry"/>
                </mxCell>
                <mxCell id="mKXnOf7b41Ta-yeb7uyL-97" value="" style="group" parent="mKXnOf7b41Ta-yeb7uyL-95" vertex="1" connectable="0">
                    <mxGeometry x="10" y="10" width="10" height="25" as="geometry"/>
                </mxCell>
                <mxCell id="mKXnOf7b41Ta-yeb7uyL-98" value="" style="endArrow=none;html=1;rounded=0;fontSize=10;" parent="mKXnOf7b41Ta-yeb7uyL-97" target="mKXnOf7b41Ta-yeb7uyL-99" edge="1">
                    <mxGeometry width="50" height="50" relative="1" as="geometry">
                        <mxPoint x="5" y="23" as="sourcePoint"/>
                        <mxPoint x="5" y="5" as="targetPoint"/>
                    </mxGeometry>
                </mxCell>
                <mxCell id="mKXnOf7b41Ta-yeb7uyL-99" value="" style="ellipse;whiteSpace=wrap;html=1;aspect=fixed;fontSize=10;fillColor=#000000;" parent="mKXnOf7b41Ta-yeb7uyL-97" vertex="1">
                    <mxGeometry width="10" height="10" as="geometry"/>
                </mxCell>
                <mxCell id="mKXnOf7b41Ta-yeb7uyL-109" value="" style="group" parent="1" vertex="1" connectable="0">
                    <mxGeometry x="324" y="120" width="84" height="36" as="geometry"/>
                </mxCell>
                <mxCell id="mKXnOf7b41Ta-yeb7uyL-110" value="" style="rounded=0;whiteSpace=wrap;html=1;" parent="mKXnOf7b41Ta-yeb7uyL-109" vertex="1">
                    <mxGeometry width="84" height="36" as="geometry"/>
                </mxCell>
                <mxCell id="mKXnOf7b41Ta-yeb7uyL-111" value="&lt;font style=&quot;font-size: 10px;&quot;&gt;Docente&lt;br&gt;&lt;/font&gt;" style="text;html=1;strokeColor=none;fillColor=none;align=center;verticalAlign=middle;whiteSpace=wrap;rounded=0;" parent="mKXnOf7b41Ta-yeb7uyL-109" vertex="1">
                    <mxGeometry width="84" height="36" as="geometry"/>
                </mxCell>
                <mxCell id="mKXnOf7b41Ta-yeb7uyL-112" value="" style="group" parent="1" vertex="1" connectable="0">
                    <mxGeometry x="327" y="87" width="30" height="35" as="geometry"/>
                </mxCell>
                <mxCell id="mKXnOf7b41Ta-yeb7uyL-113" value="&lt;font style=&quot;line-height: 1; font-size: 6px;&quot;&gt;idDoc&lt;/font&gt;" style="text;html=1;strokeColor=none;fillColor=none;align=center;verticalAlign=middle;whiteSpace=wrap;rounded=0;fontSize=10;" parent="mKXnOf7b41Ta-yeb7uyL-112" vertex="1">
                    <mxGeometry width="30" height="10" as="geometry"/>
                </mxCell>
                <mxCell id="mKXnOf7b41Ta-yeb7uyL-114" value="" style="group" parent="mKXnOf7b41Ta-yeb7uyL-112" vertex="1" connectable="0">
                    <mxGeometry x="10" y="10" width="10" height="25" as="geometry"/>
                </mxCell>
                <mxCell id="mKXnOf7b41Ta-yeb7uyL-115" value="" style="endArrow=none;html=1;rounded=0;fontSize=10;" parent="mKXnOf7b41Ta-yeb7uyL-114" target="mKXnOf7b41Ta-yeb7uyL-116" edge="1">
                    <mxGeometry width="50" height="50" relative="1" as="geometry">
                        <mxPoint x="5" y="23" as="sourcePoint"/>
                        <mxPoint x="5" y="5" as="targetPoint"/>
                    </mxGeometry>
                </mxCell>
                <mxCell id="mKXnOf7b41Ta-yeb7uyL-116" value="" style="ellipse;whiteSpace=wrap;html=1;aspect=fixed;fontSize=10;fillColor=#000000;" parent="mKXnOf7b41Ta-yeb7uyL-114" vertex="1">
                    <mxGeometry width="10" height="10" as="geometry"/>
                </mxCell>
                <mxCell id="mKXnOf7b41Ta-yeb7uyL-120" value="" style="group" parent="1" vertex="1" connectable="0">
                    <mxGeometry x="351" y="87" width="30" height="35" as="geometry"/>
                </mxCell>
                <mxCell id="mKXnOf7b41Ta-yeb7uyL-121" value="" style="endArrow=none;html=1;rounded=0;fontSize=10;" parent="mKXnOf7b41Ta-yeb7uyL-120" target="mKXnOf7b41Ta-yeb7uyL-122" edge="1">
                    <mxGeometry width="50" height="50" relative="1" as="geometry">
                        <mxPoint x="15" y="33" as="sourcePoint"/>
                        <mxPoint x="15" y="15" as="targetPoint"/>
                    </mxGeometry>
                </mxCell>
                <mxCell id="mKXnOf7b41Ta-yeb7uyL-122" value="" style="ellipse;whiteSpace=wrap;html=1;aspect=fixed;fontSize=10;" parent="mKXnOf7b41Ta-yeb7uyL-120" vertex="1">
                    <mxGeometry x="10" y="10" width="10" height="10" as="geometry"/>
                </mxCell>
                <mxCell id="mKXnOf7b41Ta-yeb7uyL-123" value="&lt;font style=&quot;font-size: 6px;&quot;&gt;nome&lt;/font&gt;" style="text;html=1;strokeColor=none;fillColor=none;align=center;verticalAlign=middle;whiteSpace=wrap;rounded=0;fontSize=10;" parent="mKXnOf7b41Ta-yeb7uyL-120" vertex="1">
                    <mxGeometry width="30" height="10" as="geometry"/>
                </mxCell>
                <mxCell id="mKXnOf7b41Ta-yeb7uyL-129" value="" style="group" parent="1" vertex="1" connectable="0">
                    <mxGeometry x="375" y="87" width="30" height="35" as="geometry"/>
                </mxCell>
                <mxCell id="mKXnOf7b41Ta-yeb7uyL-130" value="" style="endArrow=none;html=1;rounded=0;fontSize=10;" parent="mKXnOf7b41Ta-yeb7uyL-129" target="mKXnOf7b41Ta-yeb7uyL-131" edge="1">
                    <mxGeometry width="50" height="50" relative="1" as="geometry">
                        <mxPoint x="15" y="33" as="sourcePoint"/>
                        <mxPoint x="15" y="15" as="targetPoint"/>
                    </mxGeometry>
                </mxCell>
                <mxCell id="mKXnOf7b41Ta-yeb7uyL-131" value="" style="ellipse;whiteSpace=wrap;html=1;aspect=fixed;fontSize=10;" parent="mKXnOf7b41Ta-yeb7uyL-129" vertex="1">
                    <mxGeometry x="10" y="10" width="10" height="10" as="geometry"/>
                </mxCell>
                <mxCell id="mKXnOf7b41Ta-yeb7uyL-132" value="&lt;font style=&quot;font-size: 6px;&quot;&gt;cognome&lt;/font&gt;" style="text;html=1;strokeColor=none;fillColor=none;align=center;verticalAlign=middle;whiteSpace=wrap;rounded=0;fontSize=10;" parent="mKXnOf7b41Ta-yeb7uyL-129" vertex="1">
                    <mxGeometry width="30" height="10" as="geometry"/>
                </mxCell>
                <mxCell id="mKXnOf7b41Ta-yeb7uyL-137" value="" style="group" parent="1" vertex="1" connectable="0">
                    <mxGeometry x="51" y="111" width="33" height="20" as="geometry"/>
                </mxCell>
                <mxCell id="mKXnOf7b41Ta-yeb7uyL-77" value="" style="endArrow=none;html=1;rounded=0;fontSize=10;" parent="mKXnOf7b41Ta-yeb7uyL-137" target="mKXnOf7b41Ta-yeb7uyL-78" edge="1">
                    <mxGeometry width="50" height="50" relative="1" as="geometry">
                        <mxPoint x="33" y="15" as="sourcePoint"/>
                        <mxPoint x="10" y="-21" as="targetPoint"/>
                    </mxGeometry>
                </mxCell>
                <mxCell id="mKXnOf7b41Ta-yeb7uyL-78" value="" style="ellipse;whiteSpace=wrap;html=1;aspect=fixed;fontSize=10;rotation=-90;" parent="mKXnOf7b41Ta-yeb7uyL-137" vertex="1">
                    <mxGeometry x="10" y="10" width="10" height="10" as="geometry"/>
                </mxCell>
                <mxCell id="mKXnOf7b41Ta-yeb7uyL-79" value="&lt;span style=&quot;font-size: 6px;&quot;&gt;nascita&lt;/span&gt;" style="text;html=1;strokeColor=none;fillColor=none;align=center;verticalAlign=middle;whiteSpace=wrap;rounded=0;fontSize=10;rotation=0;" parent="mKXnOf7b41Ta-yeb7uyL-137" vertex="1">
                    <mxGeometry width="30" height="10" as="geometry"/>
                </mxCell>
                <mxCell id="mKXnOf7b41Ta-yeb7uyL-139" value="" style="group" parent="1" vertex="1" connectable="0">
                    <mxGeometry x="291" y="111" width="33" height="20" as="geometry"/>
                </mxCell>
                <mxCell id="mKXnOf7b41Ta-yeb7uyL-140" value="" style="endArrow=none;html=1;rounded=0;fontSize=10;" parent="mKXnOf7b41Ta-yeb7uyL-139" target="mKXnOf7b41Ta-yeb7uyL-141" edge="1">
                    <mxGeometry width="50" height="50" relative="1" as="geometry">
                        <mxPoint x="33" y="15" as="sourcePoint"/>
                        <mxPoint x="10" y="-21" as="targetPoint"/>
                    </mxGeometry>
                </mxCell>
                <mxCell id="mKXnOf7b41Ta-yeb7uyL-141" value="" style="ellipse;whiteSpace=wrap;html=1;aspect=fixed;fontSize=10;rotation=-90;" parent="mKXnOf7b41Ta-yeb7uyL-139" vertex="1">
                    <mxGeometry x="10" y="10" width="10" height="10" as="geometry"/>
                </mxCell>
                <mxCell id="mKXnOf7b41Ta-yeb7uyL-142" value="&lt;span style=&quot;font-size: 6px;&quot;&gt;nascita&lt;/span&gt;" style="text;html=1;strokeColor=none;fillColor=none;align=center;verticalAlign=middle;whiteSpace=wrap;rounded=0;fontSize=10;rotation=0;" parent="mKXnOf7b41Ta-yeb7uyL-139" vertex="1">
                    <mxGeometry width="30" height="10" as="geometry"/>
                </mxCell>
                <mxCell id="mKXnOf7b41Ta-yeb7uyL-143" value="" style="group" parent="1" vertex="1" connectable="0">
                    <mxGeometry x="109" y="210.63" width="34" height="22" as="geometry"/>
                </mxCell>
                <mxCell id="mKXnOf7b41Ta-yeb7uyL-50" value="" style="rhombus;whiteSpace=wrap;html=1;fontSize=6;fillColor=none;" parent="mKXnOf7b41Ta-yeb7uyL-143" vertex="1">
                    <mxGeometry width="34" height="22" as="geometry"/>
                </mxCell>
                <mxCell id="mKXnOf7b41Ta-yeb7uyL-80" value="Segue" style="text;html=1;strokeColor=none;fillColor=none;align=center;verticalAlign=middle;whiteSpace=wrap;rounded=0;fontSize=6;" parent="mKXnOf7b41Ta-yeb7uyL-143" vertex="1">
                    <mxGeometry x="7.25" y="6.75" width="19.5" height="7.5" as="geometry"/>
                </mxCell>
                <mxCell id="mKXnOf7b41Ta-yeb7uyL-158" value="" style="group" parent="1" vertex="1" connectable="0">
                    <mxGeometry x="349" y="210.63" width="34" height="22" as="geometry"/>
                </mxCell>
                <mxCell id="mKXnOf7b41Ta-yeb7uyL-159" value="" style="rhombus;whiteSpace=wrap;html=1;fontSize=6;fillColor=none;" parent="mKXnOf7b41Ta-yeb7uyL-158" vertex="1">
                    <mxGeometry width="34" height="22" as="geometry"/>
                </mxCell>
                <mxCell id="mKXnOf7b41Ta-yeb7uyL-160" value="Insegna" style="text;html=1;strokeColor=none;fillColor=none;align=center;verticalAlign=middle;whiteSpace=wrap;rounded=0;fontSize=6;" parent="mKXnOf7b41Ta-yeb7uyL-158" vertex="1">
                    <mxGeometry x="7.25" y="6.75" width="19.5" height="7.5" as="geometry"/>
                </mxCell>
                <mxCell id="mKXnOf7b41Ta-yeb7uyL-161" style="edgeStyle=orthogonalEdgeStyle;rounded=0;orthogonalLoop=1;jettySize=auto;html=1;exitX=0.5;exitY=0;exitDx=0;exitDy=0;entryX=0.5;entryY=1;entryDx=0;entryDy=0;fontSize=3;endArrow=none;endFill=0;" parent="1" source="mKXnOf7b41Ta-yeb7uyL-159" target="mKXnOf7b41Ta-yeb7uyL-111" edge="1">
                    <mxGeometry relative="1" as="geometry"/>
                </mxCell>
                <mxCell id="mKXnOf7b41Ta-yeb7uyL-162" style="edgeStyle=orthogonalEdgeStyle;rounded=0;orthogonalLoop=1;jettySize=auto;html=1;exitX=0;exitY=0.5;exitDx=0;exitDy=0;entryX=1;entryY=0.5;entryDx=0;entryDy=0;fontSize=3;endArrow=none;endFill=0;" parent="1" source="mKXnOf7b41Ta-yeb7uyL-159" target="mKXnOf7b41Ta-yeb7uyL-85" edge="1">
                    <mxGeometry relative="1" as="geometry"/>
                </mxCell>
                <mxCell id="mKXnOf7b41Ta-yeb7uyL-163" value="(1,1)" style="text;html=1;strokeColor=none;fillColor=none;align=center;verticalAlign=middle;whiteSpace=wrap;rounded=0;fontSize=6;" parent="1" vertex="1">
                    <mxGeometry x="336" y="222.25" width="15" height="12" as="geometry"/>
                </mxCell>
                <mxCell id="mKXnOf7b41Ta-yeb7uyL-164" value="(0,N)" style="text;html=1;strokeColor=none;fillColor=none;align=center;verticalAlign=middle;whiteSpace=wrap;rounded=0;fontSize=6;" parent="1" vertex="1">
                    <mxGeometry x="368" y="203.25" width="19" height="12" as="geometry"/>
                </mxCell>
                <mxCell id="mKXnOf7b41Ta-yeb7uyL-165" value="" style="group" parent="1" vertex="1" connectable="0">
                    <mxGeometry x="231" y="170" width="30" height="35" as="geometry"/>
                </mxCell>
                <mxCell id="mKXnOf7b41Ta-yeb7uyL-166" value="" style="endArrow=none;html=1;rounded=0;fontSize=10;" parent="mKXnOf7b41Ta-yeb7uyL-165" target="mKXnOf7b41Ta-yeb7uyL-167" edge="1">
                    <mxGeometry width="50" height="50" relative="1" as="geometry">
                        <mxPoint x="15" y="33" as="sourcePoint"/>
                        <mxPoint x="15" y="15" as="targetPoint"/>
                    </mxGeometry>
                </mxCell>
                <mxCell id="mKXnOf7b41Ta-yeb7uyL-167" value="" style="ellipse;whiteSpace=wrap;html=1;aspect=fixed;fontSize=10;" parent="mKXnOf7b41Ta-yeb7uyL-165" vertex="1">
                    <mxGeometry x="10" y="10" width="10" height="10" as="geometry"/>
                </mxCell>
                <mxCell id="mKXnOf7b41Ta-yeb7uyL-168" value="&lt;font style=&quot;font-size: 6px;&quot;&gt;pacchetto&lt;/font&gt;" style="text;html=1;strokeColor=none;fillColor=none;align=center;verticalAlign=middle;whiteSpace=wrap;rounded=0;fontSize=10;" parent="mKXnOf7b41Ta-yeb7uyL-165" vertex="1">
                    <mxGeometry width="30" height="10" as="geometry"/>
                </mxCell>
                <mxCell id="mKXnOf7b41Ta-yeb7uyL-172" value="" style="group" parent="1" vertex="1" connectable="0">
                    <mxGeometry x="138" y="312" width="84" height="36.75" as="geometry"/>
                </mxCell>
                <mxCell id="mKXnOf7b41Ta-yeb7uyL-173" value="" style="rounded=0;whiteSpace=wrap;html=1;" parent="mKXnOf7b41Ta-yeb7uyL-172" vertex="1">
                    <mxGeometry width="84" height="36.75" as="geometry"/>
                </mxCell>
                <mxCell id="mKXnOf7b41Ta-yeb7uyL-174" value="&lt;font style=&quot;font-size: 10px;&quot;&gt;Lezione&lt;br&gt;&lt;/font&gt;" style="text;html=1;strokeColor=none;fillColor=none;align=center;verticalAlign=middle;whiteSpace=wrap;rounded=0;" parent="mKXnOf7b41Ta-yeb7uyL-172" vertex="1">
                    <mxGeometry width="84" height="36.75" as="geometry"/>
                </mxCell>
                <mxCell id="mKXnOf7b41Ta-yeb7uyL-175" value="" style="group" parent="1" vertex="1" connectable="0">
                    <mxGeometry x="163" y="264" width="34" height="24" as="geometry"/>
                </mxCell>
                <mxCell id="mKXnOf7b41Ta-yeb7uyL-176" value="" style="rhombus;whiteSpace=wrap;html=1;fontSize=6;fillColor=none;" parent="mKXnOf7b41Ta-yeb7uyL-175" vertex="1">
                    <mxGeometry width="34" height="24" as="geometry"/>
                </mxCell>
                <mxCell id="mKXnOf7b41Ta-yeb7uyL-177" value="Tiene" style="text;html=1;strokeColor=none;fillColor=none;align=center;verticalAlign=middle;whiteSpace=wrap;rounded=0;fontSize=6;" parent="mKXnOf7b41Ta-yeb7uyL-175" vertex="1">
                    <mxGeometry x="7.25" y="7.913636363636363" width="19.5" height="8.181818181818182" as="geometry"/>
                </mxCell>
                <mxCell id="mKXnOf7b41Ta-yeb7uyL-179" style="edgeStyle=orthogonalEdgeStyle;rounded=0;orthogonalLoop=1;jettySize=auto;html=1;exitX=0.5;exitY=1;exitDx=0;exitDy=0;entryX=0.5;entryY=0;entryDx=0;entryDy=0;fontSize=6;endArrow=none;endFill=0;" parent="1" source="mKXnOf7b41Ta-yeb7uyL-176" target="mKXnOf7b41Ta-yeb7uyL-174" edge="1">
                    <mxGeometry relative="1" as="geometry"/>
                </mxCell>
                <mxCell id="mKXnOf7b41Ta-yeb7uyL-180" value="(1,N)" style="text;html=1;strokeColor=none;fillColor=none;align=center;verticalAlign=middle;whiteSpace=wrap;rounded=0;fontSize=6;" parent="1" vertex="1">
                    <mxGeometry x="163" y="255" width="15" height="12" as="geometry"/>
                </mxCell>
                <mxCell id="mKXnOf7b41Ta-yeb7uyL-181" value="(1,1)" style="text;html=1;strokeColor=none;fillColor=none;align=center;verticalAlign=middle;whiteSpace=wrap;rounded=0;fontSize=6;" parent="1" vertex="1">
                    <mxGeometry x="163" y="282" width="15" height="12" as="geometry"/>
                </mxCell>
                <mxCell id="mKXnOf7b41Ta-yeb7uyL-188" value="" style="group" parent="1" vertex="1" connectable="0">
                    <mxGeometry x="120" y="279" width="30" height="35" as="geometry"/>
                </mxCell>
                <mxCell id="mKXnOf7b41Ta-yeb7uyL-189" value="&lt;font style=&quot;line-height: 1; font-size: 6px;&quot;&gt;idLez&lt;/font&gt;" style="text;html=1;strokeColor=none;fillColor=none;align=center;verticalAlign=middle;whiteSpace=wrap;rounded=0;fontSize=10;" parent="mKXnOf7b41Ta-yeb7uyL-188" vertex="1">
                    <mxGeometry x="9" width="30" height="10" as="geometry"/>
                </mxCell>
                <mxCell id="mKXnOf7b41Ta-yeb7uyL-190" value="" style="group" parent="mKXnOf7b41Ta-yeb7uyL-188" vertex="1" connectable="0">
                    <mxGeometry x="19" y="10" width="10" height="25" as="geometry"/>
                </mxCell>
                <mxCell id="mKXnOf7b41Ta-yeb7uyL-191" value="" style="endArrow=none;html=1;rounded=0;fontSize=10;" parent="mKXnOf7b41Ta-yeb7uyL-190" target="mKXnOf7b41Ta-yeb7uyL-192" edge="1">
                    <mxGeometry width="50" height="50" relative="1" as="geometry">
                        <mxPoint x="5" y="23" as="sourcePoint"/>
                        <mxPoint x="5" y="5" as="targetPoint"/>
                    </mxGeometry>
                </mxCell>
                <mxCell id="mKXnOf7b41Ta-yeb7uyL-192" value="" style="ellipse;whiteSpace=wrap;html=1;aspect=fixed;fontSize=10;fillColor=#000000;" parent="mKXnOf7b41Ta-yeb7uyL-190" vertex="1">
                    <mxGeometry width="10" height="10" as="geometry"/>
                </mxCell>
                <mxCell id="mKXnOf7b41Ta-yeb7uyL-193" value="" style="group" parent="1" vertex="1" connectable="0">
                    <mxGeometry x="201" y="279" width="30" height="35" as="geometry"/>
                </mxCell>
                <mxCell id="mKXnOf7b41Ta-yeb7uyL-194" value="" style="endArrow=none;html=1;rounded=0;fontSize=10;" parent="mKXnOf7b41Ta-yeb7uyL-193" target="mKXnOf7b41Ta-yeb7uyL-195" edge="1">
                    <mxGeometry width="50" height="50" relative="1" as="geometry">
                        <mxPoint x="15" y="33" as="sourcePoint"/>
                        <mxPoint x="15" y="15" as="targetPoint"/>
                    </mxGeometry>
                </mxCell>
                <mxCell id="mKXnOf7b41Ta-yeb7uyL-195" value="" style="ellipse;whiteSpace=wrap;html=1;aspect=fixed;fontSize=10;" parent="mKXnOf7b41Ta-yeb7uyL-193" vertex="1">
                    <mxGeometry x="10" y="10" width="10" height="10" as="geometry"/>
                </mxCell>
                <mxCell id="mKXnOf7b41Ta-yeb7uyL-196" value="&lt;font style=&quot;font-size: 6px;&quot;&gt;data&lt;/font&gt;" style="text;html=1;strokeColor=none;fillColor=none;align=center;verticalAlign=middle;whiteSpace=wrap;rounded=0;fontSize=10;" parent="mKXnOf7b41Ta-yeb7uyL-193" vertex="1">
                    <mxGeometry width="30" height="10" as="geometry"/>
                </mxCell>
                <mxCell id="mKXnOf7b41Ta-yeb7uyL-202" value="" style="group" parent="1" vertex="1" connectable="0">
                    <mxGeometry x="270" y="312" width="84" height="36.75" as="geometry"/>
                </mxCell>
                <mxCell id="mKXnOf7b41Ta-yeb7uyL-203" value="" style="rounded=0;whiteSpace=wrap;html=1;" parent="mKXnOf7b41Ta-yeb7uyL-202" vertex="1">
                    <mxGeometry width="84" height="36.75" as="geometry"/>
                </mxCell>
                <mxCell id="mKXnOf7b41Ta-yeb7uyL-204" value="&lt;font style=&quot;font-size: 10px;&quot;&gt;Pagamento&lt;br&gt;&lt;/font&gt;" style="text;html=1;strokeColor=none;fillColor=none;align=center;verticalAlign=middle;whiteSpace=wrap;rounded=0;" parent="mKXnOf7b41Ta-yeb7uyL-202" vertex="1">
                    <mxGeometry width="84" height="36.75" as="geometry"/>
                </mxCell>
                <mxCell id="mKXnOf7b41Ta-yeb7uyL-205" value="" style="group" parent="1" vertex="1" connectable="0">
                    <mxGeometry x="295" y="264" width="34" height="24" as="geometry"/>
                </mxCell>
                <mxCell id="mKXnOf7b41Ta-yeb7uyL-206" value="" style="rhombus;whiteSpace=wrap;html=1;fontSize=6;fillColor=none;" parent="mKXnOf7b41Ta-yeb7uyL-205" vertex="1">
                    <mxGeometry width="34" height="24" as="geometry"/>
                </mxCell>
                <mxCell id="mKXnOf7b41Ta-yeb7uyL-207" value="Richiede" style="text;html=1;strokeColor=none;fillColor=none;align=center;verticalAlign=middle;whiteSpace=wrap;rounded=0;fontSize=6;" parent="mKXnOf7b41Ta-yeb7uyL-205" vertex="1">
                    <mxGeometry x="7.25" y="7.913636363636363" width="19.5" height="8.181818181818182" as="geometry"/>
                </mxCell>
                <mxCell id="mKXnOf7b41Ta-yeb7uyL-208" style="edgeStyle=orthogonalEdgeStyle;rounded=0;orthogonalLoop=1;jettySize=auto;html=1;exitX=0.5;exitY=1;exitDx=0;exitDy=0;entryX=0.5;entryY=0;entryDx=0;entryDy=0;fontSize=6;endArrow=none;endFill=0;" parent="1" source="mKXnOf7b41Ta-yeb7uyL-206" target="mKXnOf7b41Ta-yeb7uyL-204" edge="1">
                    <mxGeometry relative="1" as="geometry"/>
                </mxCell>
                <mxCell id="mKXnOf7b41Ta-yeb7uyL-209" value="(1,1)" style="text;html=1;strokeColor=none;fillColor=none;align=center;verticalAlign=middle;whiteSpace=wrap;rounded=0;fontSize=6;" parent="1" vertex="1">
                    <mxGeometry x="295" y="285" width="14" height="12" as="geometry"/>
                </mxCell>
                <mxCell id="mKXnOf7b41Ta-yeb7uyL-210" value="&lt;font style=&quot;line-height: 1; font-size: 6px;&quot;&gt;idPag&lt;/font&gt;" style="text;html=1;strokeColor=none;fillColor=none;align=center;verticalAlign=middle;whiteSpace=wrap;rounded=0;fontSize=10;" parent="1" vertex="1">
                    <mxGeometry x="261" y="279" width="30" height="10" as="geometry"/>
                </mxCell>
                <mxCell id="mKXnOf7b41Ta-yeb7uyL-211" value="" style="group" parent="1" vertex="1" connectable="0">
                    <mxGeometry x="271" y="289" width="10" height="25" as="geometry"/>
                </mxCell>
                <mxCell id="mKXnOf7b41Ta-yeb7uyL-212" value="" style="endArrow=none;html=1;rounded=0;fontSize=10;" parent="mKXnOf7b41Ta-yeb7uyL-211" target="mKXnOf7b41Ta-yeb7uyL-213" edge="1">
                    <mxGeometry width="50" height="50" relative="1" as="geometry">
                        <mxPoint x="5" y="23" as="sourcePoint"/>
                        <mxPoint x="5" y="5" as="targetPoint"/>
                    </mxGeometry>
                </mxCell>
                <mxCell id="mKXnOf7b41Ta-yeb7uyL-213" value="" style="ellipse;whiteSpace=wrap;html=1;aspect=fixed;fontSize=10;fillColor=#000000;" parent="mKXnOf7b41Ta-yeb7uyL-211" vertex="1">
                    <mxGeometry width="10" height="10" as="geometry"/>
                </mxCell>
                <mxCell id="mKXnOf7b41Ta-yeb7uyL-214" value="" style="group" parent="1" vertex="1" connectable="0">
                    <mxGeometry x="333" y="279" width="30" height="35" as="geometry"/>
                </mxCell>
                <mxCell id="mKXnOf7b41Ta-yeb7uyL-215" value="" style="endArrow=none;html=1;rounded=0;fontSize=10;" parent="mKXnOf7b41Ta-yeb7uyL-214" target="mKXnOf7b41Ta-yeb7uyL-216" edge="1">
                    <mxGeometry width="50" height="50" relative="1" as="geometry">
                        <mxPoint x="15" y="33" as="sourcePoint"/>
                        <mxPoint x="15" y="15" as="targetPoint"/>
                    </mxGeometry>
                </mxCell>
                <mxCell id="mKXnOf7b41Ta-yeb7uyL-216" value="" style="ellipse;whiteSpace=wrap;html=1;aspect=fixed;fontSize=10;" parent="mKXnOf7b41Ta-yeb7uyL-214" vertex="1">
                    <mxGeometry x="10" y="10" width="10" height="10" as="geometry"/>
                </mxCell>
                <mxCell id="mKXnOf7b41Ta-yeb7uyL-217" value="&lt;font style=&quot;font-size: 6px;&quot;&gt;data&lt;/font&gt;" style="text;html=1;strokeColor=none;fillColor=none;align=center;verticalAlign=middle;whiteSpace=wrap;rounded=0;fontSize=10;" parent="mKXnOf7b41Ta-yeb7uyL-214" vertex="1">
                    <mxGeometry width="30" height="10" as="geometry"/>
                </mxCell>
                <mxCell id="mKXnOf7b41Ta-yeb7uyL-220" style="edgeStyle=orthogonalEdgeStyle;rounded=0;orthogonalLoop=1;jettySize=auto;html=1;exitX=0.5;exitY=0;exitDx=0;exitDy=0;entryX=0.75;entryY=1;entryDx=0;entryDy=0;fontSize=6;endArrow=none;endFill=0;" parent="1" source="mKXnOf7b41Ta-yeb7uyL-206" target="mKXnOf7b41Ta-yeb7uyL-85" edge="1">
                    <mxGeometry relative="1" as="geometry">
                        <Array as="points">
                            <mxPoint x="312" y="252"/>
                            <mxPoint x="267" y="252"/>
                        </Array>
                    </mxGeometry>
                </mxCell>
                <mxCell id="mKXnOf7b41Ta-yeb7uyL-221" style="edgeStyle=orthogonalEdgeStyle;rounded=0;orthogonalLoop=1;jettySize=auto;html=1;exitX=0.5;exitY=0;exitDx=0;exitDy=0;entryX=0.25;entryY=1;entryDx=0;entryDy=0;fontSize=6;endArrow=none;endFill=0;" parent="1" source="mKXnOf7b41Ta-yeb7uyL-176" target="mKXnOf7b41Ta-yeb7uyL-85" edge="1">
                    <mxGeometry relative="1" as="geometry">
                        <Array as="points">
                            <mxPoint x="180" y="252"/>
                            <mxPoint x="225" y="252"/>
                        </Array>
                    </mxGeometry>
                </mxCell>
                <mxCell id="mKXnOf7b41Ta-yeb7uyL-222" value="(1,N)" style="text;html=1;strokeColor=none;fillColor=none;align=center;verticalAlign=middle;whiteSpace=wrap;rounded=0;fontSize=6;" parent="1" vertex="1">
                    <mxGeometry x="294.5" y="255" width="15" height="12" as="geometry"/>
                </mxCell>
                <mxCell id="mKXnOf7b41Ta-yeb7uyL-225" value="" style="group" parent="1" vertex="1" connectable="0">
                    <mxGeometry x="79" y="361" width="34" height="22" as="geometry"/>
                </mxCell>
                <mxCell id="mKXnOf7b41Ta-yeb7uyL-226" value="" style="rhombus;whiteSpace=wrap;html=1;fontSize=6;fillColor=none;" parent="mKXnOf7b41Ta-yeb7uyL-225" vertex="1">
                    <mxGeometry width="34" height="22" as="geometry"/>
                </mxCell>
                <mxCell id="mKXnOf7b41Ta-yeb7uyL-227" value="Esegue" style="text;html=1;strokeColor=none;fillColor=none;align=center;verticalAlign=middle;whiteSpace=wrap;rounded=0;fontSize=6;" parent="mKXnOf7b41Ta-yeb7uyL-225" vertex="1">
                    <mxGeometry x="7.25" y="6.75" width="19.5" height="7.5" as="geometry"/>
                </mxCell>
                <mxCell id="mKXnOf7b41Ta-yeb7uyL-228" style="edgeStyle=orthogonalEdgeStyle;rounded=0;orthogonalLoop=1;jettySize=auto;html=1;exitX=1;exitY=0.5;exitDx=0;exitDy=0;entryX=0.5;entryY=1;entryDx=0;entryDy=0;fontSize=6;endArrow=none;endFill=0;" parent="1" source="mKXnOf7b41Ta-yeb7uyL-226" target="mKXnOf7b41Ta-yeb7uyL-204" edge="1">
                    <mxGeometry relative="1" as="geometry"/>
                </mxCell>
                <mxCell id="mKXnOf7b41Ta-yeb7uyL-229" style="edgeStyle=orthogonalEdgeStyle;rounded=0;orthogonalLoop=1;jettySize=auto;html=1;exitX=0.5;exitY=0;exitDx=0;exitDy=0;entryX=0.145;entryY=1;entryDx=0;entryDy=0;entryPerimeter=0;fontSize=6;endArrow=none;endFill=0;" parent="1" source="mKXnOf7b41Ta-yeb7uyL-226" target="mKXnOf7b41Ta-yeb7uyL-13" edge="1">
                    <mxGeometry relative="1" as="geometry"/>
                </mxCell>
                <mxCell id="mKXnOf7b41Ta-yeb7uyL-230" value="(1,N)" style="text;html=1;strokeColor=none;fillColor=none;align=center;verticalAlign=middle;whiteSpace=wrap;rounded=0;fontSize=6;" parent="1" vertex="1">
                    <mxGeometry x="79" y="349" width="15" height="12" as="geometry"/>
                </mxCell>
                <mxCell id="mKXnOf7b41Ta-yeb7uyL-231" value="(1,1)" style="text;html=1;strokeColor=none;fillColor=none;align=center;verticalAlign=middle;whiteSpace=wrap;rounded=0;fontSize=6;" parent="1" vertex="1">
                    <mxGeometry x="111" y="375" width="14" height="12" as="geometry"/>
                </mxCell>
                <mxCell id="mKXnOf7b41Ta-yeb7uyL-232" value="&lt;font style=&quot;font-size: 11px&quot;&gt;&lt;font color=&quot;#000000&quot;&gt;Docente(&lt;u&gt;idDoc&lt;/u&gt;, nome, cognome, nascita)&lt;br&gt;Corso(&lt;u&gt;idCor&lt;/u&gt;, specializzazione, pacchetto, idDoc*)&lt;br&gt;Lezione(&lt;u&gt;idLez&lt;/u&gt;, data, idCor*)&lt;br&gt;Allievo(&lt;u&gt;idAll&lt;/u&gt;, nome, cognome, nascita, idCor*)&lt;br&gt;Pagamento(&lt;u&gt;idPag&lt;/u&gt;, data, idCor*, idAll*)&lt;/font&gt;&lt;br&gt;&lt;/font&gt;" style="text;html=1;strokeColor=default;fillColor=#FFFFFF;align=left;verticalAlign=middle;whiteSpace=wrap;rounded=0;fontSize=6;" parent="1" vertex="1">
                    <mxGeometry x="432" y="120" width="264" height="81" as="geometry"/>
                </mxCell>
            </root>
        </mxGraphModel>
    </diagram>
</mxfile>